<svg width="100" height="100" viewBox="0 0 100 100" fill="none" xmlns="http://www.w3.org/2000/svg">
<rect width="100" height="100" rx="50" fill="#EFEEED"/>
<path d="M49.8362 46.0439V46.046L49.8403 46.048L49.8362 46.0439Z" fill="#F5F5F5"/>
<path d="M49.8585 46.0752L49.8491 46.0846H49.8716L49.8585 46.0752Z" fill="#F5F5F5"/>
<path d="M49.8878 46.0825V46.0849H49.8948L49.8878 46.0825Z" fill="#F5F5F5"/>
<path d="M49.873 46.0846H49.8871L49.8771 46.0786L49.873 46.0846Z" fill="#F5F5F5"/>
<path d="M49.8307 46.0768L49.8288 46.0658L49.77 46.0474L49.8233 46.0823L49.8307 46.0768Z" fill="#F5F5F5"/>
<path d="M49.8325 46.0679V46.0772L49.84 46.0735L49.8325 46.0679Z" fill="#F5F5F5"/>
<path d="M49.8845 46.0713L49.8822 46.076L49.8869 46.0783L49.8845 46.0713Z" fill="#F5F5F5"/>
<path d="M49.8752 46.0786H49.8712L49.8732 46.0827L49.8752 46.0786Z" fill="#F5F5F5"/>
<path d="M49.8404 46.0725L49.8451 46.0702L49.8381 46.0679L49.8404 46.0725Z" fill="#F5F5F5"/>
<path d="M49.8814 46.0659L49.873 46.0701L49.8772 46.0722L49.8814 46.0659Z" fill="#F5F5F5"/>
<path d="M47.424 28.8399L49.8565 45.893L52.2687 28.8399H52.3074L55.531 5.86194C51.7241 5.33813 47.862 5.35733 44.0605 5.91898L47.3559 28.8399H47.424Z" fill="#F5F5F5"/>
<path d="M57.0785 30.2457L49.9025 46.0311L76.3653 15.3031C73.4425 12.7716 70.1706 10.674 66.6501 9.07471L57.0472 30.2347L57.0785 30.2457Z" fill="#F5F5F5"/>
<path d="M33.1952 41.1956L49.7276 46.0366H49.6632L49.8233 46.0826H49.8344V46.0734L49.8472 46.0826H49.8252L49.838 46.0918L49.9043 46.1213L49.8491 46.0863L66.479 50.955C66.4768 50.9674 66.4737 50.9797 66.4698 50.9918L88.5204 57.4722C89.6591 53.7656 90.2571 49.9141 90.296 46.0366H67.2279V46.0661L49.9006 46.0845V46.0698L49.976 46.0458L49.9135 46.0863L50.068 46.0422H49.9926L88.7136 34.5642C87.633 30.8343 86.0179 27.2806 83.9185 24.0137L49.9742 46.0366H49.9153L49.9392 46.0072L49.8951 46.0366L49.9116 45.9428L49.8804 46.0127V46.0366L49.8601 46.0514V46.0366H49.8472V46.0127L49.816 45.952L49.827 46.0293L49.792 46.0072L49.8104 46.0274H49.7534L15.9287 24.2566C13.8651 27.5154 12.2818 31.0545 11.2275 34.7648L33.1952 41.2048V41.1956ZM49.8491 46.079V46.09L49.7957 46.055L49.8491 46.079Z" fill="#F5F5F5"/>
<path d="M38.4724 32.9303L49.816 46.0219L42.6179 30.2531L33.0057 9.23291C29.5133 10.8616 26.2721 12.9819 23.3807 15.5294L38.4687 32.9321L38.4724 32.9303Z" fill="#F5F5F5"/>
<path d="M83.6849 67.8975L64.4734 55.494C64.4697 55.4991 64.4666 55.5047 64.4642 55.5106L49.9282 46.1523L61.2608 59.2163L61.2332 59.2403L76.128 76.459C79.0383 73.976 81.5825 71.0936 83.6849 67.8975Z" fill="#F5F5F5"/>
<path d="M49.8829 46.1242V46.1217L49.8804 46.1191L49.8829 46.1242Z" fill="#F5F5F5"/>
<path d="M49.8419 46.0882L49.84 46.0939L49.8325 46.0901L49.8344 46.1032L49.8363 46.1014L49.8475 46.0995L49.8419 46.0957L49.8457 46.0901H49.8494L49.8475 46.0882L49.8494 46.0845H49.8325L49.8419 46.0882Z" fill="#F5F5F5"/>
<path d="M49.7589 46.125L49.827 46.1047L49.8307 46.0882L49.8252 46.0845L49.7589 46.125Z" fill="#F5F5F5"/>
<path d="M49.7865 46.1577L35.2892 55.5638L35.2561 55.5104L16.2562 67.8053C18.3392 70.9904 20.8609 73.8658 23.7469 76.3466L40.6877 56.7248L49.7865 46.1577Z" fill="#F5F5F5"/>
<path d="M33.2045 51.0065L49.816 46.0845L9.70398 46.136C9.73255 49.9683 10.3081 53.7769 11.4133 57.4465L33.2008 51.0175L33.2045 51.0065Z" fill="#F5F5F5"/>
<path d="M33.3167 82.4685C36.7857 84.0469 40.4624 85.1219 44.2353 85.6609L49.816 46.2168L33.3167 82.4685Z" fill="#F5F5F5"/>
<path d="M49.8864 46.1021V46.0938L49.8822 46.0958L49.8864 46.1021Z" fill="#F5F5F5"/>
<path d="M55.5365 85.6961C59.3187 85.1776 63.0073 84.1205 66.4901 82.5571L49.9043 46.2134L55.5365 85.6961Z" fill="#F5F5F5"/>
<path d="M49.8417 46.1506L49.8601 46.2812L49.8785 46.1542L49.8583 46.1138L49.8417 46.1506Z" fill="#F5F5F5"/>
<path d="M49.8808 46.0972L49.8767 46.0992L49.8808 46.1012V46.0972Z" fill="#F5F5F5"/>
<path d="M90.296 92.2002C90.296 92.2278 72.2529 92.248 50 92.248C27.747 92.248 9.70398 92.2278 9.70398 92.2002C9.70398 92.1726 27.736 92.1523 50 92.1523C72.264 92.1523 90.296 92.1744 90.296 92.2002Z" fill="#263238"/>
<path d="M60.5469 25.6255C60.5469 25.6255 66.387 38.1375 61.9913 49.792C57.5955 61.4466 41.4495 78.152 39.6592 79.0425C39.6592 79.0425 43.801 72.5345 36.2386 72.5878C28.6762 72.6412 24.8785 70.7993 24.0652 68.1479C23.2519 65.4964 27.7452 56.9331 23.6125 54.876C19.4799 52.8188 14.4567 53.4352 11.084 50.5814C11.084 50.5814 18.95 49.9264 24.757 49.3339C30.8529 48.712 49.172 35.9534 50.6513 26.5676" fill="#5EAAFF"/>
<g opacity="0.4">
<path d="M60.5469 25.6255C60.5469 25.6255 66.387 38.1375 61.9913 49.792C57.5955 61.4466 41.4495 78.152 39.6592 79.0425C39.6592 79.0425 43.801 72.5345 36.2386 72.5878C28.6762 72.6412 24.8785 70.7993 24.0652 68.1479C23.2519 65.4964 27.7452 56.9331 23.6125 54.876C19.4799 52.8188 14.4567 53.4352 11.084 50.5814C11.084 50.5814 18.95 49.9264 24.757 49.3339C30.8529 48.712 49.172 35.9534 50.6513 26.5676" fill="black"/>
</g>
<path d="M39.2967 47.1699C39.2645 47.1983 39.23 47.2242 39.1937 47.2472L38.8864 47.4551C38.6215 47.6391 38.2295 47.8857 37.7401 48.1911C36.7612 48.791 35.3757 49.573 33.7951 50.331C32.4452 50.9781 31.0634 51.5566 29.6551 52.0643C29.1142 52.2575 28.6744 52.4066 28.3671 52.5004L28.0139 52.609C27.9734 52.6239 27.9315 52.6344 27.8887 52.6402C27.9263 52.62 27.9658 52.6034 28.0065 52.5906L28.3543 52.4654C28.6579 52.3606 29.0903 52.2023 29.6312 51.9999C30.7058 51.5988 32.1741 51.0008 33.7547 50.2446C35.3352 49.4883 36.7171 48.7174 37.7051 48.1322C38.1983 47.8415 38.5957 47.5986 38.8662 47.4294L39.1827 47.2362C39.2182 47.2101 39.2564 47.1878 39.2967 47.1699Z" fill="#263238"/>
<path d="M44.2665 54.1069C44.2269 54.1426 44.1852 54.1758 44.1414 54.2063L43.7734 54.4749C43.4514 54.7049 42.9914 55.0435 42.4284 55.4685C41.2986 56.3149 39.7659 57.522 38.143 58.9388C36.5201 60.3556 35.118 61.7135 34.1263 62.7181C33.6313 63.2205 33.2339 63.6381 32.9616 63.9178L32.6469 64.2453C32.6106 64.2845 32.5719 64.3214 32.531 64.3557C32.5622 64.3126 32.596 64.2714 32.6322 64.2325L32.934 63.8921C33.1989 63.5977 33.589 63.18 34.0784 62.6721C35.0573 61.6528 36.4557 60.2801 38.0786 58.867C39.7015 57.4539 41.2471 56.2469 42.3879 55.4133C42.9564 54.9957 43.4238 54.6663 43.7513 54.4437L44.1193 54.1897C44.1651 54.1566 44.2144 54.1288 44.2665 54.1069Z" fill="#263238"/>
<path d="M43.5949 56.1564C43.5794 56.1818 43.5609 56.2053 43.5397 56.2263L43.3686 56.4103C43.2177 56.5704 43.0006 56.7967 42.7172 57.0709C42.1652 57.6229 41.3741 58.3589 40.4669 59.1409C39.5598 59.9229 38.7079 60.5834 38.0749 61.0508C37.7603 61.2826 37.5027 61.4685 37.3224 61.5917L37.1145 61.7334C37.0907 61.7514 37.0647 61.7662 37.0372 61.7776C37.0372 61.7776 37.0593 61.7537 37.1034 61.7169L37.3003 61.5623L38.0363 60.9956C38.6527 60.5172 39.4973 59.8437 40.4007 59.0673C41.3041 58.2908 42.1008 57.5603 42.6676 57.023L43.3373 56.3845L43.5213 56.2116C43.5692 56.1729 43.5913 56.1545 43.5949 56.1564Z" fill="#263238"/>
<path d="M42.6105 85.6958L41.6685 89.9572L39.9517 93.111C39.9222 93.1648 39.904 93.224 39.8985 93.2851C39.8929 93.3462 39.9 93.4078 39.9193 93.4661C39.9387 93.5243 39.9699 93.5779 40.0109 93.6235C40.0519 93.6691 40.102 93.7057 40.1578 93.7311C40.2224 93.7609 40.2932 93.7747 40.3643 93.7715C40.4354 93.7683 40.5046 93.7482 40.5663 93.7127C41.3649 93.2508 44.296 91.5378 44.3475 91.2232C44.4064 90.8552 45.6355 86.7943 45.6355 86.7943L42.6105 85.6958Z" fill="#263238"/>
<path d="M44.48 90.8037C44.4314 90.8525 44.377 90.8952 44.3181 90.9307L43.8562 91.2435L42.3272 92.2683L40.8 93.2951C40.616 93.4147 40.4614 93.5177 40.3345 93.6023C40.2776 93.6436 40.2158 93.6776 40.1505 93.7035C40.1977 93.6539 40.2501 93.6095 40.3069 93.5711C40.4117 93.4901 40.5645 93.3779 40.7558 93.238C41.1367 92.962 41.6758 92.5885 42.2683 92.1874C42.8608 91.7863 43.4128 91.4348 43.8139 91.1883C44.0145 91.0632 44.1819 90.9638 44.2923 90.8994C44.3509 90.8602 44.4139 90.8281 44.48 90.8037Z" fill="#455A64"/>
<path d="M61.5037 86.7152L61.2479 90.1118C61.2479 90.1118 64.6225 91.5139 64.6372 92.1469H58.0132L58.1972 86.5698L61.5037 86.7152Z" fill="#263238"/>
<path d="M64.4293 91.928C64.3449 91.9375 64.2597 91.9375 64.1754 91.928L63.4835 91.9059C62.9002 91.8875 62.0943 91.8617 61.2019 91.8507C60.3095 91.8397 59.5054 91.8397 58.9203 91.8507H58.2285C58.1437 91.8563 58.0585 91.8526 57.9745 91.8397C58.0581 91.8228 58.1432 91.8142 58.2285 91.8139C58.3904 91.8029 58.6278 91.7918 58.9203 91.7808C59.5036 91.7605 60.3114 91.7477 61.2038 91.7605C62.0962 91.7734 62.9039 91.8065 63.4872 91.8433C63.7779 91.8617 64.0134 91.8801 64.1772 91.8949C64.2619 91.8994 64.3462 91.9104 64.4293 91.928Z" fill="#455A64"/>
<path d="M46.6714 52.4487L40.8221 88.5698L46.1949 88.8936L54.4859 52.4487H46.6714Z" fill="#5EAAFF"/>
<path d="M54.5834 50.8738L57.2827 88.8937H62.3372V48.6382L54.5834 50.8738Z" fill="#5EAAFF"/>
<path d="M60.5082 86.5163C60.4806 86.5163 60.074 78.9889 59.5974 69.7006C59.1208 60.4122 58.7547 52.8793 58.7823 52.8774C58.8099 52.8756 59.2165 60.4049 59.6931 69.695C60.1696 78.9852 60.534 86.5163 60.5082 86.5163Z" fill="#263238"/>
<path d="M62.3372 86.5165L62.2985 86.5294C62.2654 86.5294 62.2139 86.5478 62.1495 86.557C62.0189 86.5791 61.8275 86.6048 61.5975 86.6343C61.1283 86.6913 60.4769 86.7594 59.7575 86.8183C58.3205 86.9489 57.1465 87.0023 57.1484 86.936C57.1484 86.936 57.1668 86.936 57.1999 86.936H57.3526L57.9046 86.8919L59.7446 86.7318L61.5846 86.5699C62.052 86.5349 62.3574 86.5128 62.3372 86.5165Z" fill="#263238"/>
<path d="M49.8565 53.2988C49.8565 53.2988 49.8565 53.3283 49.8473 53.3853C49.8381 53.4423 49.827 53.527 49.8123 53.6337C49.7792 53.8563 49.7295 54.1765 49.6669 54.5868C49.54 55.4148 49.3486 56.6108 49.1039 58.0828C48.6163 61.0379 47.9061 65.1153 47.0449 69.6049C46.1838 74.0945 45.3301 78.1443 44.6897 81.0718C44.3696 82.5346 44.1028 83.7177 43.9151 84.5328C43.8213 84.9376 43.7477 85.2541 43.6961 85.4731L43.6373 85.7159C43.6225 85.7711 43.6133 85.7987 43.6133 85.7987C43.6133 85.7987 43.6133 85.7693 43.6281 85.7141C43.6428 85.6589 43.6557 85.5724 43.6777 85.4676C43.7237 85.2486 43.7918 84.9321 43.8783 84.5255C44.0623 83.7012 44.3089 82.518 44.6235 81.0571C45.2473 78.1278 46.0955 74.0761 46.9511 69.5865C47.8067 65.0969 48.528 61.0397 49.0377 58.0773C49.2879 56.6053 49.4903 55.4111 49.6301 54.5813C49.7001 54.171 49.7553 53.8453 49.7939 53.63C49.8123 53.5252 49.827 53.446 49.8381 53.3835C49.8491 53.3209 49.8565 53.2988 49.8565 53.2988Z" fill="#263238"/>
<path d="M46.7358 86.5166C46.6634 86.5281 46.59 86.5312 46.5169 86.5258L45.9225 86.5111L43.9611 86.432L42.0015 86.34L41.4072 86.3124C41.3346 86.3122 41.2621 86.3079 41.1901 86.2995C41.4595 86.262 41.732 86.2527 42.0033 86.2719C42.5057 86.2719 43.1993 86.3032 43.9648 86.3363C44.7302 86.3694 45.4239 86.4099 45.9244 86.443C46.1765 86.4596 46.3789 86.4743 46.5187 86.4872C46.5919 86.4896 46.6646 86.4995 46.7358 86.5166Z" fill="#263238"/>
<g opacity="0.3">
<path d="M46.3881 54.206L46.504 53.4884L54.3461 53.0449L54.0498 54.3532L46.3881 54.206Z" fill="black"/>
</g>
<g opacity="0.3">
<path d="M54.8061 54.3532L54.5834 53.0395L62.3372 52.6567L62.3354 54.5151L54.8061 54.3532Z" fill="black"/>
</g>
<path d="M47.1756 25.7449L52.6496 24.5269L57.2496 24.7164L61.2608 25.9915L58.9792 37.4326L50.2466 38.2073L47.1756 25.7449Z" fill="#263238"/>
<path d="M51.8179 24.7163L46.0587 25.9914L48.9383 41.4162C48.9383 41.4162 46.3623 47.6721 46.0587 53.4884L54.5834 53.0394C54.5834 53.0394 55.1704 45.374 54.9698 42.4226C54.7693 39.4713 54.635 34.3082 54.635 34.3082L51.8179 24.7163Z" fill="#5EAAFF"/>
<path d="M35.3499 33.567C35.3499 33.567 37.304 31.5853 39.3427 30.5199C40.846 29.7343 43.79 28.748 44.9602 27.4821C45.3881 27.0326 45.7589 26.532 46.0642 25.9917L47.424 33.256L41.6445 34.176C41.6445 34.176 42.5038 34.6452 41.9684 34.9801L45.5895 39.2121L43.1073 43.8931C43.1073 43.8931 35.015 36.9213 35.3499 33.567Z" fill="#5EAAFF"/>
<path d="M57.2496 24.7163C57.9495 24.8037 58.6411 24.9477 59.3177 25.1469C60.5432 25.5517 62.615 25.9914 62.615 25.9914L59.671 41.6185C59.671 41.6185 63.673 46.5645 62.615 52.6162C62.615 52.6162 57.0858 53.0523 54.5834 53.0394L54.5503 34.0249C54.5503 34.0249 56.646 31.3569 56.9147 28.7404C57.1833 26.1239 57.2496 24.7163 57.2496 24.7163Z" fill="#5EAAFF"/>
<path d="M62.615 25.9917C62.615 25.9917 65.9141 29.4086 67.7302 30.6984C69.5463 31.9883 71.8316 33.9184 71.8316 34.9451C71.7949 35.5876 71.6641 36.2212 71.4433 36.8256C71.3163 37.2052 71.13 37.5623 70.8913 37.8836C70.0578 38.9876 67.8498 41.8691 66.3907 43.2362L62.7107 39.3593L66.2067 35.4953C66.2067 35.4953 61.5147 33.5596 61.2828 33.0334C61.051 32.5071 62.615 25.9917 62.615 25.9917Z" fill="#5EAAFF"/>
<path d="M54.5153 36.0858C54.4848 36.0635 54.4564 36.0382 54.4307 36.0104L54.2007 35.7804L53.3561 34.9119L50.4931 31.9219L50.4765 31.9035V31.8778L50.8556 30.288C50.9126 30.0506 50.9678 29.817 51.023 29.5851L51.069 29.644H49.1885L49.2069 29.5851C49.6522 28.2364 50.0331 27.0809 50.3109 26.2529C50.4471 25.8499 50.5557 25.5279 50.6348 25.2961C50.6716 25.1912 50.701 25.1121 50.7249 25.044C50.7335 25.014 50.7452 24.985 50.7599 24.9575C50.7551 24.9881 50.7477 25.0183 50.7378 25.0477C50.7194 25.1139 50.6937 25.1986 50.6624 25.3053L50.368 26.2639C50.1012 27.0956 49.7313 28.2548 49.3008 29.6072L49.2585 29.5483H51.0819H51.1426L51.1297 29.6072C51.0745 29.839 51.0175 30.0727 50.9623 30.3101C50.8298 30.8621 50.7029 31.392 50.5814 31.8998L50.5685 31.8575L53.4077 34.8714L54.232 35.7602L54.4509 36.003C54.4749 36.0286 54.4965 36.0563 54.5153 36.0858Z" fill="#263238"/>
<path d="M54.5834 53.0397C54.5577 53.0397 54.5227 48.7507 54.5062 43.4607C54.4896 38.1707 54.497 33.8798 54.5227 33.8779C54.5485 33.8761 54.5834 38.167 54.6018 43.4607C54.6202 48.7543 54.611 53.0397 54.5834 53.0397Z" fill="#263238"/>
<path d="M58.1328 24.8564C58.145 24.8898 58.1537 24.9243 58.1586 24.9595C58.1714 25.0368 58.1898 25.1435 58.2138 25.2612C58.2598 25.5354 58.3242 25.9163 58.3978 26.3892L59.0197 30.2403L59.0289 30.3028H58.9663L57.9506 30.1667L58.0003 30.0986L58.2082 30.5218C58.3481 30.807 58.4861 31.0885 58.6186 31.3553L58.6314 31.3829L58.613 31.405L55.9377 34.7464L55.1354 35.7345L54.9146 35.9995C54.8915 36.0317 54.8643 36.0608 54.8337 36.086C54.8539 36.0518 54.8767 36.0192 54.9018 35.9884L55.1078 35.7143L55.888 34.7078L58.5431 31.3369V31.3884C58.4125 31.1216 58.2745 30.8364 58.1328 30.5549L57.912 30.128L57.8715 30.0471L57.9617 30.0581L58.9774 30.198L58.9258 30.2513C58.6903 28.7112 58.4842 27.3662 58.337 26.3873C58.269 25.9126 58.2138 25.5299 58.1733 25.2557C58.1573 25.1331 58.1445 25.0319 58.1346 24.9521C58.1314 24.9203 58.1308 24.8883 58.1328 24.8564Z" fill="#263238"/>
<path d="M53.783 46.8241C53.588 46.5868 53.2071 46.4561 53.0231 46.6953C52.9301 46.7717 52.8627 46.8746 52.8298 46.9904C52.7969 47.1061 52.8002 47.2291 52.8391 47.343C52.8706 47.4124 52.9156 47.4749 52.9715 47.5267C53.0275 47.5785 53.0932 47.6186 53.1648 47.6447C53.2365 47.6707 53.3126 47.6822 53.3888 47.6784C53.4649 47.6747 53.5395 47.6557 53.6082 47.6227C53.675 47.5843 53.733 47.5324 53.7785 47.4703C53.824 47.4082 53.856 47.3373 53.8725 47.2621C53.8889 47.1869 53.8895 47.1091 53.8741 47.0336C53.8587 46.9582 53.8277 46.8868 53.783 46.8241Z" fill="#263238"/>
<path d="M53.8861 41.8579C53.691 41.6187 53.3101 41.4807 53.1261 41.7291C53.0336 41.8058 52.9664 41.9088 52.9336 42.0244C52.9007 42.14 52.9037 42.2629 52.9421 42.3768C52.9734 42.4464 53.0183 42.5091 53.0742 42.561C53.1301 42.613 53.1959 42.6532 53.2676 42.6793C53.3393 42.7053 53.4155 42.7168 53.4917 42.7128C53.5679 42.7089 53.6426 42.6898 53.7113 42.6565C53.778 42.6181 53.836 42.5662 53.8815 42.5042C53.927 42.4421 53.959 42.3711 53.9755 42.2959C53.9919 42.2207 53.9925 42.1429 53.9771 42.0675C53.9617 41.992 53.9307 41.9207 53.8861 41.8579Z" fill="#263238"/>
<path d="M67.0274 41.4476C66.8323 41.2103 66.4514 41.0796 66.2674 41.3188C66.1747 41.3954 66.1074 41.4983 66.0745 41.614C66.0416 41.7297 66.0447 41.8527 66.0834 41.9665C66.1147 42.0361 66.1596 42.0988 66.2155 42.1507C66.2714 42.2027 66.3372 42.2429 66.4089 42.269C66.4806 42.295 66.5568 42.3065 66.633 42.3026C66.7092 42.2986 66.7839 42.2795 66.8526 42.2462C66.9193 42.2079 66.9773 42.156 67.0228 42.0939C67.0683 42.0318 67.1003 41.9608 67.1168 41.8856C67.1332 41.8104 67.1338 41.7326 67.1184 41.6572C67.103 41.5818 67.072 41.5104 67.0274 41.4476Z" fill="#263238"/>
<path d="M43.065 41.9038C42.87 41.6646 42.4891 41.5266 42.3051 41.775C42.2123 41.8516 42.145 41.9545 42.1122 42.0702C42.0793 42.1859 42.0824 42.3088 42.1211 42.4227C42.1524 42.4923 42.1973 42.555 42.2532 42.6069C42.3091 42.6589 42.3748 42.6991 42.4465 42.7252C42.5182 42.7512 42.5945 42.7627 42.6707 42.7587C42.7469 42.7548 42.8215 42.7357 42.8902 42.7024C42.957 42.664 43.015 42.6121 43.0605 42.55C43.106 42.488 43.138 42.417 43.1544 42.3418C43.1709 42.2666 43.1714 42.1888 43.156 42.1134C43.1406 42.0379 43.1096 41.9666 43.065 41.9038Z" fill="#263238"/>
<path d="M42.0144 35.048C41.5542 34.8343 41.0629 34.6952 40.5589 34.6359C40.0529 34.6085 39.5456 34.6607 39.0557 34.7904C39.1863 34.7137 39.3286 34.659 39.477 34.6285C40.1936 34.4451 40.9512 34.51 41.6261 34.8125C41.7679 34.8687 41.8991 34.9483 42.0144 35.048Z" fill="#263238"/>
<path d="M39.0557 34.1758C39.1679 34.1014 39.2925 34.0478 39.4237 34.0175C39.7382 33.9233 40.065 33.8767 40.3933 33.8795C40.7223 33.8824 41.0491 33.9339 41.363 34.0322C41.4935 34.0672 41.6177 34.1224 41.731 34.196C41.2941 34.0701 40.8439 33.996 40.3897 33.9752C39.9385 33.9876 39.4905 34.055 39.0557 34.1758Z" fill="#263238"/>
<path d="M47.5896 34.1941C47.5561 34.0937 47.5296 33.991 47.5105 33.8868L47.3265 33.0441C47.1535 32.321 46.9217 31.3476 46.6659 30.2712C46.4101 29.1948 46.2041 28.1994 46.09 27.4763C46.0311 27.1083 45.9906 26.8231 45.9704 26.6207C45.9533 26.5161 45.9453 26.4102 45.9465 26.3042C45.9742 26.4063 45.9945 26.5102 46.0072 26.6152C46.0385 26.8157 46.09 27.1064 46.1562 27.4652C46.2869 28.1828 46.5021 29.1672 46.7597 30.2492C47.0173 31.3311 47.2473 32.3155 47.3927 33.0312C47.4663 33.3882 47.5215 33.6789 47.5528 33.8795C47.5735 33.9832 47.5858 34.0884 47.5896 34.1941Z" fill="#263238"/>
<path d="M62.4108 26.3447C62.4067 26.4536 62.3932 26.562 62.3703 26.6686C62.3353 26.8912 62.2875 27.1856 62.2286 27.5444C62.1053 28.297 61.9397 29.3126 61.7576 30.4332C61.5754 31.5538 61.3896 32.5805 61.2571 33.3165C61.1872 33.6845 61.1283 33.9826 61.0841 34.1886C61.0675 34.2962 61.0416 34.402 61.0068 34.5051C61.0106 34.3947 61.0216 34.2847 61.04 34.1758C61.0768 33.9531 61.1246 33.6587 61.1816 33.2999C61.3049 32.5455 61.4724 31.5317 61.6545 30.4111C61.8367 29.2906 62.0225 28.2638 62.155 27.526C62.2249 27.158 62.2838 26.8618 62.3261 26.6557C62.3473 26.5502 62.3756 26.4464 62.4108 26.3447Z" fill="#263238"/>
<path d="M68.687 33.598C68.687 33.6146 68.4828 33.598 68.159 33.6146C67.7382 33.6183 67.3307 33.7628 67.0016 34.0249C66.7011 34.3197 66.4785 34.6845 66.3539 35.0866C66.3025 35.2557 66.241 35.4216 66.1699 35.5834C66.1903 35.4063 66.231 35.2322 66.2914 35.0645C66.4024 34.6412 66.627 34.2563 66.9409 33.9513C67.1249 33.7926 67.3436 33.6792 67.5794 33.6201C67.7687 33.5714 67.9634 33.5467 68.159 33.5465C68.2893 33.5452 68.4196 33.5526 68.549 33.5686C68.5965 33.5694 68.6434 33.5794 68.687 33.598Z" fill="#263238"/>
<path d="M69.5647 34.4576C69.5647 34.4741 69.3623 34.4575 69.0385 34.4796C68.1926 34.5288 67.3749 34.8011 66.6685 35.269C66.3962 35.453 66.2435 35.5781 66.2325 35.5652C66.2214 35.5524 66.2619 35.5229 66.3281 35.4604C66.4233 35.3711 66.5241 35.2882 66.6299 35.212C67.331 34.7045 68.1713 34.4251 69.0366 34.4116C69.1663 34.4094 69.296 34.4155 69.4249 34.43C69.4728 34.4304 69.5202 34.4397 69.5647 34.4576Z" fill="#263238"/>
<path d="M50.3165 41.8579C50.103 41.8046 49.8949 41.7319 49.6946 41.6408C49.4839 41.5789 49.2794 41.4976 49.0837 41.3979C49.3063 41.406 49.5251 41.4579 49.7277 41.5507C49.9418 41.6145 50.1417 41.7188 50.3165 41.8579Z" fill="#263238"/>
<path d="M50.552 40.0088C50.5667 40.0309 50.1361 40.3253 49.6522 40.7448C49.1683 41.1643 48.8113 41.5433 48.7911 41.5231C49.0145 41.2019 49.2835 40.9149 49.5896 40.6712C49.876 40.4041 50.2003 40.1809 50.552 40.0088Z" fill="#263238"/>
<path d="M62.6151 52.6163C62.6151 52.6439 58.9111 52.8592 54.3351 53.1002C49.759 53.3413 46.0551 53.5161 46.0551 53.4885C46.0551 53.4609 49.759 53.2456 54.3351 53.0045C58.9111 52.7635 62.6132 52.5906 62.6151 52.6163Z" fill="#263238"/>
<g opacity="0.3">
<path d="M66.03 35.3956C65.9142 35.0401 65.9146 34.657 66.031 34.3017C66.1474 33.9464 66.374 33.6374 66.6777 33.4195C66.8026 33.3177 66.9627 33.2694 67.123 33.2851C67.1619 33.2908 67.1992 33.3046 67.2323 33.3258C67.2655 33.3469 67.2938 33.3748 67.3153 33.4077C67.3369 33.4405 67.3512 33.4776 67.3574 33.5164C67.3636 33.5553 67.3615 33.595 67.3512 33.6329C67.2972 33.719 67.2191 33.7875 67.1267 33.8298C66.8471 34.0209 66.6357 34.2961 66.5232 34.6155C66.4115 34.9325 66.3344 35.2607 66.2932 35.5943" fill="black"/>
</g>
<g opacity="0.3">
<path d="M49.2511 29.5923C49.2842 29.6917 49.9429 29.7671 50.0681 30.0395C50.1648 30.3246 50.1648 30.6338 50.0681 30.919C49.9727 31.2034 49.9273 31.5022 49.9337 31.8022C49.9889 32.3358 50.4269 32.7387 50.8353 33.0902C51.9761 34.0635 53.3653 35.1142 54.5153 36.0894C53.496 34.875 52.1675 33.6238 51.0451 32.5198C50.8674 32.3687 50.7254 32.1802 50.6293 31.9678C50.5628 31.6793 50.5807 31.3779 50.6808 31.0993C50.7765 30.7227 50.8734 30.3455 50.9715 29.9677C50.9954 29.8702 51.0525 29.7064 51.0653 29.6531C50.9293 29.6293 50.7913 29.6176 50.6532 29.6181C50.1866 29.5826 49.7182 29.5789 49.2511 29.6071" fill="black"/>
</g>
<path d="M42.9141 42.3471C42.9273 42.2946 42.9471 42.2439 42.973 42.1963C43.0172 42.1024 43.0852 41.9681 43.1736 41.8043C43.4084 41.3797 43.6728 40.9721 43.9648 40.5844C44.2553 40.1943 44.5732 39.8254 44.916 39.4804C45.0485 39.3498 45.1589 39.2467 45.238 39.1787C45.3172 39.1106 45.3613 39.0756 45.3668 39.0811C45.2415 39.2374 45.1076 39.3867 44.9657 39.5283C44.7155 39.8006 44.3806 40.1851 44.0457 40.6323C43.7108 41.0794 43.4293 41.5136 43.238 41.8283C43.1405 42.0075 43.0324 42.1808 42.9141 42.3471Z" fill="#263238"/>
<path d="M44.2776 37.7896C44.2886 37.8024 44.077 38.0067 43.7605 38.36C42.9337 39.2813 42.2642 40.3325 41.7789 41.4714C41.5949 41.9075 41.4955 42.1853 41.4808 42.1816C41.4905 42.1127 41.5071 42.0448 41.5305 41.9792C41.5673 41.8504 41.6298 41.6683 41.7145 41.4456C42.1696 40.2832 42.8471 39.2207 43.709 38.3176C43.8746 38.1447 44.0126 38.0122 44.1138 37.9239C44.1638 37.8738 44.2187 37.8288 44.2776 37.7896Z" fill="#263238"/>
<path d="M67.9933 41.5102C67.9386 41.4658 67.8892 41.4152 67.8461 41.3593L67.4653 40.9361C67.1414 40.581 66.6833 40.0971 66.1644 39.5782C65.6455 39.0593 65.1597 38.603 64.8028 38.281L64.3777 37.9001C64.3219 37.8571 64.2713 37.8077 64.2269 37.7529C64.29 37.7844 64.3488 37.824 64.4017 37.8707C64.5102 37.9516 64.6629 38.0731 64.8469 38.2295C65.2149 38.5404 65.7099 38.9912 66.2306 39.5175C66.7513 40.0437 67.204 40.5295 67.5186 40.8993C67.675 41.0833 67.7965 41.236 67.8866 41.3428C67.9285 41.3943 67.9643 41.4505 67.9933 41.5102Z" fill="#263238"/>
<path d="M45.0651 40.189L46.2703 40.8385L48.9438 41.5966C48.9438 41.5966 48.3918 45.2545 48.0441 45.5673C47.6963 45.8801 43.79 42.5938 43.79 42.5938L45.0651 40.189Z" fill="#FFBE9D"/>
<path d="M63.2903 39.9702L62.42 40.6473L59.912 41.8415C59.912 41.8415 61.0713 45.3541 61.4613 45.6043C61.8514 45.8545 65.1597 41.9648 65.1597 41.9648L63.2903 39.9702Z" fill="#FFBE9D"/>
<path d="M50.9439 13.5679C50.9089 14.51 49.6559 15.0804 49.6706 16.0224C49.6706 16.4254 49.9282 16.7897 49.9779 17.1908C50.0441 17.73 49.7424 18.2378 49.6301 18.7696C49.402 19.8736 50.0386 21.0217 50.9844 21.6216C51.9301 22.2214 53.1151 22.3355 54.2246 22.1846" fill="#263238"/>
<path d="M58.521 13.3433C58.4842 13.8493 58.8173 14.3001 59.154 14.6791C59.4907 15.0581 59.8642 15.4537 59.936 15.9597C60.0648 16.8485 59.2 17.6728 59.3748 18.5541C59.4705 19.0252 59.8569 19.4042 59.9268 19.8808C59.9967 20.3573 59.7428 20.8008 59.441 21.143C59.1393 21.4853 58.7805 21.4411 58.51 21.8201C58.1953 22.2455 57.7955 22.6008 57.3361 22.8634C56.3609 23.3989 55.1906 22.6261 54.7196 22.4954" fill="#263238"/>
<path d="M50.7544 14.1198C50.7415 13.6617 51.1647 13.3065 51.5916 13.1391C52.0184 12.9717 52.4932 12.9091 52.8796 12.6515C53.2163 12.4252 53.4426 12.0719 53.7278 11.783C54.0793 11.4269 54.5192 11.1706 55.0023 11.0403C55.4854 10.91 55.9944 10.9104 56.4773 11.0414C56.9602 11.1724 57.3997 11.4294 57.7507 11.786C58.1017 12.1426 58.3516 12.5861 58.475 13.071C58.6388 13.7224 58.5265 14.4952 58.0113 14.9276C57.4152 15.4317 56.5301 15.3195 55.7647 15.1631C54.9992 15.0067 54.1271 14.8558 53.496 15.3048C53.1114 15.5771 52.8906 16.0169 52.6551 16.4253C52.4196 16.8338 52.1233 17.2497 51.678 17.4024C51.2328 17.5551 50.6292 17.292 50.6108 16.8209" fill="#263238"/>
<path d="M52.5613 14.2099C52.3702 14.2306 52.1938 14.3222 52.0671 14.4667C51.9404 14.6111 51.8724 14.7979 51.8768 14.99L52.3349 25.3437C52.3533 26.5655 54.1418 27.2536 55.4519 27.2224C56.773 27.1929 56.8172 26.5434 56.8319 25.3824C56.8595 23.4375 56.8577 22.7088 56.8595 22.7199C56.8613 22.7309 58.5284 22.4384 58.8706 20.258C59.0399 19.1724 58.981 17.3949 58.8872 15.9413C58.8025 14.6349 57.9322 13.0323 56.6295 13.1721L52.5613 14.2099Z" fill="#FFBE9D"/>
<path d="M58.1954 17.1891C58.1964 17.2619 58.1688 17.3321 58.1186 17.3848C58.0683 17.4374 57.9994 17.4683 57.9267 17.4707C57.8912 17.4737 57.8555 17.4695 57.8216 17.4585C57.7877 17.4475 57.7564 17.4298 57.7295 17.4065C57.7026 17.3832 57.6806 17.3547 57.6649 17.3227C57.6491 17.2908 57.6399 17.256 57.6378 17.2204C57.6369 17.1466 57.6651 17.0753 57.7165 17.0222C57.7679 16.9691 57.8381 16.9385 57.912 16.9371C57.9472 16.9348 57.9825 16.9396 58.0158 16.9511C58.0492 16.9626 58.0799 16.9805 58.1063 17.004C58.1326 17.0274 58.1541 17.0559 58.1694 17.0876C58.1846 17.1194 58.1935 17.1539 58.1954 17.1891Z" fill="#263238"/>
<path d="M58.5045 16.8686C58.4695 16.9036 58.2561 16.7472 57.9525 16.749C57.6489 16.7509 57.4318 16.9018 57.4005 16.865C57.3692 16.8282 57.4189 16.7822 57.5164 16.7122C57.6457 16.6216 57.8001 16.5733 57.958 16.5742C58.1144 16.574 58.267 16.623 58.3941 16.7141C58.4898 16.7858 58.5211 16.8521 58.5045 16.8686Z" fill="#263238"/>
<path d="M55.2753 17.1891C55.2763 17.2618 55.2487 17.3321 55.1984 17.3847C55.1482 17.4373 55.0793 17.4682 55.0066 17.4706C54.9711 17.4736 54.9354 17.4695 54.9015 17.4584C54.8676 17.4474 54.8363 17.4297 54.8094 17.4064C54.7825 17.3831 54.7605 17.3546 54.7447 17.3226C54.729 17.2907 54.7198 17.2559 54.7177 17.2203C54.7167 17.1474 54.7442 17.077 54.7944 17.024C54.8446 16.9711 54.9135 16.9399 54.9864 16.937C55.022 16.934 55.0579 16.9382 55.0919 16.9493C55.1259 16.9604 55.1573 16.9783 55.1842 17.0018C55.2112 17.0253 55.2331 17.054 55.2488 17.0862C55.2644 17.1184 55.2734 17.1533 55.2753 17.1891Z" fill="#263238"/>
<path d="M55.5457 16.9313C55.5108 16.9662 55.2992 16.8117 54.9937 16.8117C54.6883 16.8117 54.4712 16.9644 54.4417 16.9276C54.4123 16.8908 54.4601 16.8466 54.5558 16.7749C54.6858 16.6844 54.8409 16.6368 54.9993 16.6387C55.1556 16.6372 55.3083 16.6856 55.4353 16.7767C55.531 16.8485 55.5623 16.9147 55.5457 16.9313Z" fill="#263238"/>
<path d="M56.6424 19.1596C56.8013 19.1101 56.9657 19.0798 57.1318 19.0694C57.2091 19.0694 57.2809 19.0473 57.2937 18.994C57.3 18.9145 57.282 18.8349 57.2422 18.7658C57.1686 18.5818 57.0932 18.3868 57.0141 18.1825C56.6957 17.349 56.4621 16.6664 56.5007 16.6535C56.5393 16.6406 56.819 17.3049 57.1355 18.1365C57.2109 18.3426 57.2845 18.5377 57.3545 18.7253C57.403 18.8181 57.4173 18.9249 57.3949 19.0271C57.3843 19.0546 57.3673 19.0792 57.3452 19.0987C57.3231 19.1182 57.2966 19.1322 57.268 19.1393C57.226 19.151 57.1827 19.1572 57.1392 19.1577C56.9743 19.1786 56.8074 19.1792 56.6424 19.1596Z" fill="#263238"/>
<path d="M56.8595 22.7201C55.8328 22.7378 54.8213 22.4702 53.9376 21.9473C53.9615 21.9473 54.7416 23.4634 56.83 23.2353L56.8595 22.7201Z" fill="#EB996E"/>
<path d="M56.5173 19.8847C56.4593 19.8136 56.3846 19.7579 56.2998 19.7229C56.215 19.6879 56.1228 19.6746 56.0315 19.6842C55.9651 19.6907 55.9007 19.7103 55.8419 19.7419C55.7832 19.7735 55.7313 19.8164 55.6893 19.8682C55.6468 19.9191 55.6218 19.9823 55.6178 20.0485C55.6138 20.1148 55.6311 20.1805 55.6672 20.2362C55.7158 20.2895 55.7791 20.3274 55.8491 20.3451C55.9191 20.3627 55.9928 20.3594 56.0609 20.3355C56.2018 20.2816 56.3306 20.2003 56.44 20.0963C56.4736 20.0719 56.5024 20.0413 56.5246 20.0062C56.5358 19.9899 56.5417 19.9707 56.5417 19.951C56.5417 19.9313 56.5358 19.912 56.5246 19.8958" fill="#5EAAFF"/>
<path d="M55.7574 19.3692C55.807 19.3692 55.8089 19.693 56.0886 19.9212C56.3682 20.1493 56.716 20.1052 56.7178 20.1604C56.7197 20.2156 56.6406 20.2248 56.4952 20.2284C56.3035 20.2315 56.117 20.1663 55.969 20.0444C55.8263 19.9286 55.7345 19.7615 55.7132 19.5789C55.704 19.4556 55.7353 19.3673 55.7574 19.3692Z" fill="#263238"/>
<path d="M55.6801 16.4035C55.6507 16.4863 55.3507 16.4476 54.9975 16.4899C54.6442 16.5323 54.359 16.6316 54.313 16.558C54.2909 16.5231 54.3406 16.4458 54.4565 16.374C54.6094 16.2757 54.7829 16.2139 54.9635 16.1935C55.1441 16.1731 55.327 16.1946 55.4979 16.2563C55.6286 16.3004 55.693 16.3648 55.6801 16.4035Z" fill="#263238"/>
<path d="M58.3904 15.9965C58.3389 16.0665 58.1309 15.9965 57.8825 15.9965C57.6341 15.9965 57.4207 16.0425 57.3729 15.9726C57.3508 15.9377 57.3839 15.8677 57.4759 15.8033C57.5996 15.7254 57.7437 15.686 57.8899 15.6903C58.036 15.6945 58.1776 15.7422 58.2965 15.8273C58.3849 15.8935 58.4143 15.9597 58.3904 15.9965Z" fill="#263238"/>
<path d="M51.6394 21.504C52.2393 21.6254 52.2926 21.32 52.7434 20.9041C52.9656 20.6938 53.1357 20.4347 53.2405 20.1473C53.3452 19.8599 53.3817 19.552 53.347 19.2481C53.2789 18.7127 52.99 18.168 53.1758 17.6602C53.4206 16.9904 54.3608 16.7844 54.6092 16.1164C54.7546 15.7264 54.6239 15.2719 54.7932 14.891C54.9625 14.5101 55.325 14.328 55.6911 14.1955C56.0573 14.063 56.451 13.971 56.7602 13.7318C57.0693 13.4926 57.2588 13.04 57.0601 12.7051C55.4318 12.9002 53.8326 13.2887 52.2963 13.8624C51.9412 13.9949 51.5603 14.155 51.3579 14.4715C51.1555 14.788 51.1445 15.2388 51.1647 15.6399C51.2555 17.6025 51.3463 19.5603 51.437 21.5132" fill="#263238"/>
<path d="M50.2668 17.0636C50.2325 16.7009 50.0807 16.3593 49.8345 16.0907C49.5883 15.8221 49.2612 15.6413 48.9028 15.5757C48.5444 15.5101 48.1744 15.5633 47.849 15.7273C47.5236 15.8912 47.2607 16.1569 47.1001 16.484C46.7984 17.1004 46.9033 17.8493 47.1866 18.4749C47.5215 19.2109 48.2097 19.8954 49.0266 19.8586C49.7939 19.8236 50.4103 19.152 50.6311 18.416C50.8519 17.68 50.7636 16.8943 50.6716 16.1326" fill="#263238"/>
<path d="M49.8399 20.043C49.7937 20.0087 49.7549 19.9656 49.7258 19.916C49.6402 19.7844 49.5849 19.6355 49.5639 19.4799C49.5318 19.2504 49.5386 19.0172 49.5841 18.7899C49.6283 18.5342 49.7148 18.2655 49.7681 17.9803C49.8378 17.717 49.8541 17.4423 49.816 17.1726C49.7718 16.9297 49.6559 16.7236 49.6062 16.5323C49.5573 16.3815 49.5528 16.2199 49.5933 16.0667C49.6283 15.9582 49.6743 15.914 49.678 15.9177C49.6817 15.9214 49.6504 15.9729 49.6301 16.0759C49.6061 16.2224 49.62 16.3725 49.6706 16.512C49.7605 16.7219 49.8379 16.937 49.9025 17.156C49.9481 17.4373 49.9343 17.725 49.862 18.0006C49.7976 18.2913 49.7093 18.5526 49.6614 18.8065C49.6139 19.0245 49.6003 19.2486 49.6209 19.4707C49.6519 19.675 49.7266 19.8702 49.8399 20.043Z" fill="#455A64"/>
<path d="M49.816 17.4317C49.7298 17.5642 49.6154 17.676 49.4811 17.7592C49.167 17.9806 48.7936 18.1024 48.4094 18.109C48.0252 18.1156 47.6479 18.0065 47.3264 17.796C47.1901 17.7176 47.0727 17.6102 46.9824 17.4814C46.9934 17.4685 47.1185 17.5973 47.3632 17.739C47.6799 17.9248 48.0418 18.0197 48.4089 18.0132C48.7761 18.0068 49.1343 17.8991 49.4443 17.7022C49.6761 17.5458 49.7976 17.4115 49.816 17.4317Z" fill="#455A64"/>
<path d="M49.7 17.7649C49.662 17.8901 49.5995 18.0064 49.516 18.1072C49.3293 18.3631 49.0932 18.579 48.8218 18.7424C48.5504 18.9058 48.249 19.0132 47.9355 19.0585C47.8074 19.0846 47.6753 19.0846 47.5472 19.0585C47.6716 19.0283 47.7975 19.0049 47.9244 18.9885C48.2237 18.9262 48.5104 18.8142 48.7727 18.6573C49.0337 18.4992 49.2669 18.299 49.4627 18.0649C49.6117 17.8864 49.6872 17.7576 49.7 17.7649Z" fill="#455A64"/>
<path d="M50.2502 20.7712C50.2502 20.7712 50.241 20.7712 50.2263 20.7455C50.2038 20.7176 50.1835 20.6881 50.1656 20.6571C50.0953 20.5398 50.0467 20.4108 50.022 20.2763C49.9809 20.062 49.9929 19.8408 50.057 19.6323C50.1396 19.3515 50.3197 19.1094 50.5648 18.9496C50.8224 18.7656 51.1592 18.6405 51.3744 18.3498C51.4283 18.2772 51.4665 18.1944 51.4868 18.1063C51.5071 18.0183 51.5089 17.927 51.4922 17.8383C51.4506 17.6441 51.3889 17.4548 51.3082 17.2734C51.2226 17.0661 51.1809 16.8433 51.1857 16.6191C51.1904 16.3949 51.2415 16.1741 51.3358 15.9707C51.4346 15.7521 51.5872 15.5622 51.7792 15.4187C51.9793 15.2791 52.2071 15.1844 52.4472 15.1408C52.6827 15.0875 52.9182 15.0562 53.1372 14.9899C53.3511 14.9323 53.5476 14.823 53.7094 14.6716C53.8554 14.5146 53.9442 14.313 53.9615 14.0994C53.9811 13.8864 54.015 13.6749 54.0627 13.4664C54.1594 13.0744 54.3633 12.717 54.6515 12.4342C54.9045 12.1912 55.2253 12.0308 55.5715 11.9742C55.8227 11.9315 56.0809 11.9607 56.3162 12.0583C56.5516 12.156 56.7546 12.3182 56.9018 12.5262C56.98 12.6376 57.0374 12.7623 57.0711 12.8942C57.0846 12.9396 57.0921 12.9866 57.0932 13.034C57.0515 12.8585 56.9759 12.6928 56.8705 12.5464C56.7445 12.3779 56.5798 12.2423 56.3903 12.1508C56.1384 12.0309 55.8553 11.9929 55.5807 12.0423C55.2483 12.0994 54.941 12.2559 54.6993 12.4912C54.428 12.7672 54.2372 13.112 54.1473 13.4885C54.1006 13.6965 54.0674 13.9073 54.048 14.1196C54.0281 14.3527 53.9317 14.5726 53.7738 14.7452C53.5989 14.9078 53.3865 15.0247 53.1556 15.0856C52.9274 15.1555 52.69 15.1868 52.46 15.2402C52.2327 15.2814 52.0164 15.3698 51.8252 15.4996C51.6465 15.6334 51.5041 15.8099 51.4112 16.013C51.3221 16.2052 51.2735 16.4136 51.2685 16.6254C51.2634 16.8372 51.302 17.0477 51.3818 17.2439C51.4639 17.4312 51.5256 17.6267 51.5658 17.8272C51.5837 17.9268 51.5808 18.0291 51.5574 18.1275C51.5339 18.226 51.4905 18.3186 51.4296 18.3995C51.1904 18.7123 50.8445 18.8337 50.5943 19.0085C50.3584 19.1571 50.183 19.3847 50.0993 19.6507C50.0331 19.8503 50.016 20.0631 50.0496 20.2707C50.0841 20.4488 50.1522 20.6186 50.2502 20.7712Z" fill="#455A64"/>
<path d="M50.3956 14.6849C50.3793 14.6535 50.3699 14.619 50.368 14.5837C50.3605 14.4819 50.3863 14.3805 50.4416 14.2948C50.5274 14.1562 50.6569 14.0501 50.8096 13.993C51.0122 13.9285 51.2288 13.9215 51.4352 13.9728C51.6633 14.017 51.9007 14.1071 52.1601 14.1568C52.2929 14.1939 52.432 14.202 52.5682 14.1808C52.7044 14.1595 52.8344 14.1093 52.9495 14.0335C53.1813 13.8495 53.2973 13.5514 53.415 13.2497C53.5347 12.9257 53.7048 12.6226 53.9192 12.3518C54.3362 11.8208 54.9193 11.445 55.5752 11.2846C55.8623 11.2168 56.1621 11.2244 56.4455 11.3066C56.6908 11.3848 56.909 11.5309 57.0748 11.728C57.2146 11.89 57.2991 12.0924 57.3158 12.3058C57.3309 12.4651 57.3062 12.6257 57.2441 12.7731C57.2069 12.8662 57.1512 12.9507 57.0803 13.0215C57.0576 13.0483 57.0301 13.0708 56.9993 13.0878C57.0892 12.9927 57.1603 12.8816 57.2091 12.7602C57.2621 12.6169 57.2804 12.463 57.2625 12.3113C57.242 12.1107 57.1582 11.9219 57.0233 11.7722C56.8597 11.5909 56.6487 11.459 56.4142 11.3913C56.143 11.3177 55.8577 11.3133 55.5844 11.3784C54.9532 11.5409 54.3931 11.9069 53.9909 12.4198C53.7815 12.6796 53.6144 12.9708 53.496 13.2828C53.3745 13.5846 53.2549 13.9066 52.9955 14.1034C52.8703 14.1973 52.7209 14.2534 52.5649 14.2654C52.422 14.2763 52.2782 14.2663 52.1381 14.2359C51.8694 14.1789 51.6357 14.085 51.4149 14.039C51.2205 13.9852 51.0151 13.9852 50.8206 14.039C50.6775 14.0891 50.5543 14.184 50.4692 14.3095C50.4139 14.3882 50.3843 14.482 50.3845 14.5782C50.3882 14.6499 50.4011 14.683 50.3956 14.6849Z" fill="#455A64"/>
<path d="M80.7077 87.5232C80.7162 87.4973 80.7267 87.4721 80.739 87.4478C80.7629 87.3944 80.7979 87.3245 80.8402 87.2325C80.9625 86.9547 81.0616 86.6673 81.1364 86.3732C81.3723 85.2771 81.3635 84.1425 81.1107 83.0502C80.9542 82.2941 80.7483 81.5492 80.4943 80.8201C80.233 80.027 79.9312 79.1862 79.6828 78.279C79.403 77.3308 79.2683 76.3457 79.2836 75.3571C79.3204 74.3249 79.6258 73.2926 79.9625 72.2659C80.2992 71.2392 80.6452 70.2327 80.75 69.2226C80.8676 68.2506 80.6744 67.2664 80.198 66.411C79.7528 65.5904 79.1934 64.8875 78.7739 64.1607C78.3822 63.4869 78.0938 62.7581 77.9183 61.9987C77.6651 60.8987 77.6463 59.7577 77.8631 58.6499C77.9403 58.245 78.0575 57.8487 78.2127 57.4668C78.2083 57.4937 78.2015 57.5202 78.1924 57.5459C78.174 57.6011 78.152 57.6766 78.1207 57.7722C78.06 57.9728 77.9808 58.269 77.9036 58.6573C77.7047 59.7599 77.7348 60.8916 77.9919 61.9822C78.1708 62.7323 78.4604 63.4517 78.8512 64.1166C79.2688 64.8342 79.8319 65.5334 80.2845 66.3632C80.7754 67.2343 80.9771 68.2387 80.8604 69.2318C80.7556 70.2603 80.406 71.2723 80.0711 72.299C79.7362 73.3258 79.4326 74.3451 79.394 75.3608C79.3798 76.3391 79.5119 77.314 79.7859 78.2533C80.0288 79.1567 80.3379 79.9976 80.5863 80.7906C80.837 81.5248 81.0392 82.2747 81.1916 83.0354C81.4732 84.4357 81.394 85.6114 81.1916 86.3842C81.1117 86.6791 81.0052 86.9661 80.8733 87.2417C80.8273 87.3318 80.7905 87.4018 80.7629 87.4533C80.7473 87.4786 80.7288 87.5021 80.7077 87.5232Z" fill="#263238"/>
<path d="M79.3369 64.8785C79.3369 64.8785 78.485 62.1553 80.0122 60.5619C80.0241 60.5489 80.0394 60.5394 80.0563 60.5347C80.0733 60.53 80.0913 60.5301 80.1082 60.5351C80.1251 60.5401 80.1402 60.5497 80.1519 60.5629C80.1635 60.5761 80.1713 60.5923 80.1741 60.6097C80.2551 61.0587 80.36 62.4276 79.3369 64.8785Z" fill="#5EAAFF"/>
<path d="M79.8466 61.4688C79.844 61.6376 79.8249 61.8059 79.7896 61.9711C79.7325 62.317 79.6663 62.7236 79.5945 63.1726L79.4105 64.3723C79.3969 64.5404 79.3667 64.7068 79.3204 64.8691C79.3067 64.7003 79.3122 64.5306 79.3369 64.3631C79.3645 64.0521 79.4197 63.6271 79.497 63.1542C79.5743 62.6813 79.6553 62.2618 79.7215 61.9582C79.7445 61.7908 79.7865 61.6266 79.8466 61.4688Z" fill="#263238"/>
<path d="M80.3361 71.2999C80.3361 71.2999 80.8568 68.4939 82.9525 67.8039C82.9689 67.798 82.9867 67.7968 83.0037 67.8004C83.0208 67.804 83.0365 67.8123 83.0491 67.8243C83.0617 67.8363 83.0707 67.8516 83.0751 67.8685C83.0795 67.8854 83.0791 67.9031 83.074 67.9198C82.936 68.3522 82.384 69.6108 80.3361 71.2999Z" fill="#5EAAFF"/>
<path d="M82.384 68.5254C82.3016 68.6727 82.2055 68.812 82.0969 68.9412L81.3609 69.9128L80.6249 70.8843C80.5334 71.0258 80.4293 71.1588 80.314 71.2817C80.3778 71.1252 80.4613 70.9774 80.5624 70.842C80.7335 70.5788 80.9819 70.2274 81.2708 69.8484C81.5596 69.4693 81.8228 69.1326 82.0288 68.8952C82.1315 68.7577 82.2508 68.6335 82.384 68.5254Z" fill="#263238"/>
<path d="M79.7694 78.3362C79.7694 78.3362 79.4529 75.5026 81.2561 74.2293C81.27 74.2186 81.2867 74.212 81.3042 74.2104C81.3217 74.2087 81.3394 74.212 81.3551 74.2199C81.3708 74.2277 81.384 74.2399 81.3932 74.2549C81.4024 74.2699 81.4071 74.2871 81.4069 74.3047C81.4014 74.7611 81.2395 76.1282 79.7694 78.3362Z" fill="#5EAAFF"/>
<path d="M80.9212 75.085C80.8858 75.2502 80.8347 75.4116 80.7684 75.567C80.6488 75.8964 80.5053 76.2828 80.3489 76.7097C80.1925 77.1366 80.0527 77.523 79.9331 77.8523C79.8876 78.0145 79.826 78.1717 79.7491 78.3215C79.7673 78.1534 79.805 77.9879 79.8613 77.8284C79.9478 77.5285 80.084 77.1182 80.2496 76.6729C80.4152 76.2276 80.5752 75.8265 80.6985 75.5394C80.7562 75.3804 80.8308 75.228 80.9212 75.085Z" fill="#263238"/>
<path d="M81.3481 85.4127C81.3481 85.4127 81.1328 82.568 82.982 81.3647C82.9966 81.3553 83.0135 81.3501 83.0308 81.3496C83.0482 81.3492 83.0653 81.3534 83.0804 81.3619C83.0956 81.3704 83.1081 81.3829 83.1167 81.3979C83.1253 81.413 83.1296 81.4301 83.1292 81.4475C83.1071 81.8983 82.8974 83.2544 81.3481 85.4127Z" fill="#5EAAFF"/>
<path d="M82.6158 82.2002C82.5743 82.364 82.5176 82.5235 82.4465 82.6768C82.3122 83.0006 82.1577 83.3815 81.9847 83.8028C81.8117 84.2242 81.6609 84.6051 81.5284 84.9289C81.4776 85.0899 81.4104 85.2453 81.3278 85.3926C81.3523 85.225 81.3962 85.0607 81.4585 84.9032C81.556 84.6069 81.705 84.2021 81.8872 83.7624C82.0693 83.3226 82.2423 82.9288 82.3766 82.6473C82.4389 82.4896 82.5192 82.3396 82.6158 82.2002Z" fill="#263238"/>
<path d="M78.1134 62.4863C78.1134 62.4863 75.5834 61.1652 75.5374 58.959C75.5371 58.9416 75.5416 58.9243 75.5504 58.9093C75.5592 58.8942 75.572 58.8818 75.5874 58.8734C75.6027 58.8651 75.6201 58.8611 75.6375 58.8619C75.655 58.8627 75.6719 58.8683 75.6864 58.8781C76.0581 59.1375 77.0995 60.0318 78.1134 62.4863Z" fill="#5EAAFF"/>
<path d="M76.0599 59.7173C76.1775 59.8385 76.2829 59.971 76.3745 60.1129C76.5806 60.3962 76.8216 60.7293 77.0866 61.0991C77.3516 61.469 77.5963 61.7983 77.8024 62.0817C77.9107 62.2109 78.0074 62.3494 78.0912 62.4957C77.9606 62.3878 77.8438 62.2642 77.7435 62.1277C77.5429 61.8885 77.278 61.5481 77.0075 61.1598C76.737 60.7716 76.4886 60.4238 76.3193 60.1552C76.2167 60.0194 76.1297 59.8725 76.0599 59.7173Z" fill="#263238"/>
<path d="M80.8274 68.3337C80.8274 68.3337 78.2238 67.169 78.0398 64.9683C78.0379 64.951 78.041 64.9335 78.0486 64.9178C78.0562 64.9021 78.068 64.8888 78.0827 64.8794C78.0974 64.8701 78.1144 64.865 78.1319 64.8648C78.1493 64.8645 78.1665 64.8692 78.1814 64.8782C78.5733 65.1155 79.6663 65.9454 80.8274 68.3337Z" fill="#5EAAFF"/>
<path d="M78.6101 65.6934C78.735 65.8044 78.8484 65.9277 78.9487 66.0614L79.7196 67.0016L80.4943 67.94C80.6101 68.0629 80.7148 68.1959 80.8071 68.3374C80.6706 68.2371 80.547 68.1203 80.4391 67.9897C80.2238 67.7634 79.9404 67.4377 79.6387 67.0697C79.3369 66.7017 79.0719 66.376 78.8879 66.1147C78.7795 65.9854 78.6862 65.844 78.6101 65.6934Z" fill="#263238"/>
<path d="M79.3296 74.855C79.3296 74.855 77.5411 72.6323 78.3801 70.5899C78.3865 70.5736 78.3973 70.5595 78.4113 70.549C78.4252 70.5385 78.4419 70.5322 78.4593 70.5306C78.4767 70.5291 78.4942 70.5325 78.5098 70.5403C78.5254 70.5482 78.5384 70.5603 78.5476 70.5752C78.7886 70.9634 79.3829 72.1999 79.3296 74.855Z" fill="#5EAAFF"/>
<path d="M78.5568 71.4951C78.6171 71.6533 78.6609 71.8173 78.6874 71.9846C78.7628 72.3268 78.8493 72.7206 78.9468 73.1732L79.2081 74.36C79.2551 74.5218 79.2877 74.6874 79.3056 74.855C79.2299 74.7034 79.1725 74.5435 79.1345 74.3784C79.0462 74.0785 78.9505 73.6608 78.842 73.1953C78.7334 72.7298 78.658 72.3066 78.6138 71.9974C78.5762 71.8326 78.5571 71.6642 78.5568 71.4951Z" fill="#263238"/>
<path d="M81.096 82.5293C81.096 82.5293 78.52 81.3204 78.3654 79.118C78.3641 79.1006 78.3677 79.0833 78.3756 79.0679C78.3836 79.0524 78.3957 79.0395 78.4106 79.0306C78.4255 79.0216 78.4425 79.0169 78.4599 79.0171C78.4773 79.0173 78.4943 79.0222 78.509 79.0315C78.9009 79.2744 79.9791 80.1226 81.096 82.5293Z" fill="#5EAAFF"/>
<path d="M78.9266 79.8521C79.0501 79.9682 79.1617 80.0964 79.2597 80.2348L80.0159 81.1879L80.7722 82.1373C80.8868 82.2619 80.9897 82.3968 81.0794 82.5403C80.943 82.4378 80.8194 82.3192 80.7114 82.187C80.5017 81.957 80.222 81.635 79.9276 81.2541C79.6332 80.8732 79.3756 80.5347 79.1916 80.2789C79.0878 80.1468 78.999 80.0037 78.9266 79.8521Z" fill="#263238"/>
<path d="M86.248 71.3145C86.2499 71.3353 86.2499 71.3563 86.248 71.3771C86.248 71.4267 86.248 71.4875 86.248 71.5611C86.248 71.7322 86.2296 71.964 86.2167 72.2529L86.0824 74.7222C85.8984 75.7544 85.3721 76.8971 84.6674 78.0084C84.1485 78.8272 83.6057 79.5706 83.1384 80.2624C82.7117 80.8661 82.3287 81.4995 81.992 82.1576C81.7702 82.6036 81.5903 83.0693 81.4548 83.5487C81.4088 83.7179 81.3756 83.8523 81.3554 83.9424C81.3476 83.9895 81.3353 84.0357 81.3186 84.0804C81.3191 84.0327 81.3246 83.9853 81.3352 83.9388C81.348 83.8449 81.3756 83.7106 81.4143 83.5376C81.5348 83.0502 81.7056 82.5766 81.924 82.1245C82.2536 81.4585 82.6318 80.8177 83.0556 80.2072C83.5211 79.5099 84.062 78.7665 84.5772 77.9514C85.2783 76.8474 85.8008 75.7195 85.9922 74.7038C86.064 73.6918 86.1228 72.8436 86.1652 72.2364C86.1891 71.9493 86.2075 71.7175 86.2222 71.5464C86.2222 71.4746 86.2351 71.4139 86.2406 71.3624C86.2461 71.3108 86.248 71.3145 86.248 71.3145Z" fill="#263238"/>
<path d="M84.7079 77.8027C84.7079 77.8027 85.8027 75.1678 84.4264 73.4419C84.4158 73.4279 84.4016 73.417 84.3852 73.4107C84.3689 73.4043 84.3511 73.4027 84.3338 73.4059C84.3166 73.4092 84.3006 73.4172 84.2877 73.4291C84.2747 73.441 84.2654 73.4563 84.2608 73.4732C84.1393 73.9203 83.913 75.269 84.7079 77.8027Z" fill="#5EAAFF"/>
<path d="M84.5092 74.3599C84.5564 74.5224 84.5854 74.6896 84.5957 74.8585C84.6343 75.1676 84.6785 75.5945 84.7116 76.0711C84.7447 76.5476 84.7631 76.9782 84.7631 77.2891C84.7719 77.4584 84.7614 77.6282 84.7318 77.7951C84.7013 77.6295 84.6865 77.4613 84.6877 77.2928C84.6638 76.9432 84.6362 76.5329 84.6049 76.0784C84.5736 75.6239 84.546 75.2155 84.5202 74.8659C84.4999 74.698 84.4962 74.5285 84.5092 74.3599Z" fill="#263238"/>
<g opacity="0.3">
<path d="M84.7079 77.8027C84.7079 77.8027 85.8027 75.1678 84.4264 73.4419C84.4158 73.4279 84.4016 73.417 84.3852 73.4107C84.3689 73.4043 84.3511 73.4027 84.3338 73.4059C84.3166 73.4092 84.3006 73.4172 84.2877 73.4291C84.2747 73.441 84.2654 73.4563 84.2608 73.4732C84.1393 73.9203 83.913 75.269 84.7079 77.8027Z" fill="black"/>
</g>
<path d="M81.3186 84.1503C81.3186 84.1503 82.1963 81.4345 80.6838 79.8263C80.6721 79.8133 80.6569 79.8039 80.6401 79.7991C80.6232 79.7942 80.6054 79.7942 80.5885 79.799C80.5717 79.8038 80.5565 79.8132 80.5447 79.8261C80.533 79.8391 80.525 79.8551 80.5219 79.8723C80.4354 80.3213 80.3213 81.6884 81.3186 84.1503Z" fill="#5EAAFF"/>
<path d="M80.842 80.728C80.901 80.8864 80.9435 81.0504 80.969 81.2175C81.0316 81.5229 81.1107 81.9535 81.1824 82.4171C81.2542 82.8808 81.3057 83.3169 81.3315 83.6279C81.3554 83.7955 81.3585 83.9655 81.3407 84.1339C81.2981 83.9704 81.2698 83.8036 81.256 83.6352C81.2045 83.2893 81.1438 82.8827 81.072 82.4337C81.0003 81.9847 80.9414 81.5781 80.888 81.2303C80.8554 81.0649 80.84 80.8966 80.842 80.728Z" fill="#263238"/>
<g opacity="0.3">
<path d="M81.3186 84.1503C81.3186 84.1503 82.1963 81.4345 80.6838 79.8263C80.6721 79.8133 80.6569 79.8039 80.6401 79.7991C80.6232 79.7942 80.6054 79.7942 80.5885 79.799C80.5717 79.8038 80.5565 79.8132 80.5447 79.8261C80.533 79.8391 80.525 79.8551 80.5219 79.8723C80.4354 80.3213 80.3213 81.6884 81.3186 84.1503Z" fill="black"/>
</g>
<path d="M86.1026 74.5824C86.1026 74.5824 88.4394 72.9466 88.2039 70.7515C88.2022 70.7342 88.1958 70.7176 88.1853 70.7037C88.1748 70.6899 88.1607 70.6792 88.1444 70.6729C88.1282 70.6666 88.1105 70.6649 88.0934 70.6681C88.0763 70.6712 88.0604 70.6791 88.0475 70.6908C87.7071 70.9962 86.8 72.0174 86.1026 74.5824Z" fill="#5EAAFF"/>
<g opacity="0.3">
<path d="M86.1026 74.5824C86.1026 74.5824 88.4394 72.9466 88.2039 70.7515C88.2022 70.7342 88.1958 70.7176 88.1853 70.7037C88.1748 70.6899 88.1607 70.6792 88.1444 70.6729C88.1282 70.6666 88.1105 70.6649 88.0934 70.6681C88.0763 70.6712 88.0604 70.6791 88.0475 70.6908C87.7071 70.9962 86.8 72.0174 86.1026 74.5824Z" fill="black"/>
</g>
<path d="M87.7807 71.5723C87.733 71.7341 87.6675 71.8902 87.5857 72.0378C87.4532 72.3211 87.26 72.7057 87.0337 73.1252C86.8073 73.5447 86.5902 73.9164 86.4228 74.1795C86.3404 74.3279 86.2403 74.4657 86.1247 74.5899C86.1879 74.4333 86.2655 74.283 86.3565 74.1409C86.5258 73.8336 86.7245 73.473 86.9398 73.0737L87.5194 72.0047C87.5913 71.8519 87.6789 71.707 87.7807 71.5723Z" fill="#263238"/>
<path d="M82.2607 81.4642C82.2607 81.4642 85.0796 81.0245 85.834 78.9508C85.8404 78.9346 85.8422 78.9168 85.8392 78.8996C85.8361 78.8824 85.8283 78.8664 85.8166 78.8534C85.805 78.8404 85.7899 78.831 85.7731 78.826C85.7564 78.8211 85.7386 78.821 85.7217 78.8257C85.282 78.9453 84.0087 79.4605 82.2607 81.4642Z" fill="#5EAAFF"/>
<g opacity="0.3">
<path d="M82.2607 81.4642C82.2607 81.4642 85.0796 81.0245 85.834 78.9508C85.8404 78.9346 85.8422 78.9168 85.8392 78.8996C85.8361 78.8824 85.8283 78.8664 85.8166 78.8534C85.805 78.8404 85.7899 78.831 85.7731 78.826C85.7564 78.8211 85.7386 78.821 85.7217 78.8257C85.282 78.9453 84.0087 79.4605 82.2607 81.4642Z" fill="black"/>
</g>
<path d="M85.0943 79.4951C84.9797 79.6195 84.852 79.7312 84.7134 79.8282C84.4706 80.0232 84.1265 80.2826 83.7401 80.5642C83.3537 80.8457 82.993 81.0775 82.7262 81.2413C82.5869 81.3375 82.4369 81.4172 82.2791 81.4786C82.4048 81.3667 82.5402 81.2663 82.6839 81.1787L83.6775 80.4758L84.6693 79.7711C84.8008 79.6643 84.9433 79.5718 85.0943 79.4951Z" fill="#263238"/>
<path d="M79.5725 86.6455L78.75 92.1784H83.8744L83.2102 86.6455H79.5725Z" fill="#455A64"/>
<path d="M83.4144 88.3603C82.727 88.4136 82.0373 88.4314 81.3481 88.4136C80.6588 88.4314 79.9691 88.4136 79.2817 88.3603C79.9691 88.307 80.6588 88.2892 81.3481 88.3069C82.0373 88.2892 82.727 88.307 83.4144 88.3603Z" fill="#263238"/>
<path d="M83.5156 88.7999C83.5156 88.8294 82.5606 88.8533 81.383 88.8533C80.2054 88.8533 79.256 88.8239 79.256 88.7999C79.256 88.776 80.2109 88.7466 81.3904 88.7466C82.5698 88.7466 83.5156 88.7705 83.5156 88.7999Z" fill="#263238"/>
<path d="M18.5507 82.0786C18.8098 82.1225 19.0573 82.2181 19.2786 82.3597C19.4999 82.5013 19.6904 82.6861 19.8387 82.9029C20.1318 83.3407 20.3207 83.8399 20.3907 84.3621C20.5582 85.363 20.2877 86.5001 19.916 87.4459C18.8948 86.9657 18.3502 85.777 18.1128 85.1551C17.7448 84.1744 17.6528 82.1706 18.5434 82.0786" fill="#5EAAFF"/>
<path d="M21.4285 88.8554C21.2747 88.6046 21.1901 88.3175 21.1833 88.0234C21.1765 87.7293 21.2478 87.4386 21.3898 87.181C21.5357 86.9256 21.7311 86.7019 21.9646 86.5231C22.1981 86.3442 22.465 86.2138 22.7496 86.1396C22.8764 86.0911 23.0122 86.0709 23.1476 86.0804C23.283 86.09 23.4147 86.129 23.5334 86.1948C23.633 86.2739 23.7096 86.3783 23.7553 86.497C23.8009 86.6158 23.8139 86.7446 23.7929 86.8701C23.7469 87.1207 23.6358 87.3548 23.4709 87.549C22.9391 88.2372 22.2969 88.8039 21.4285 88.8554Z" fill="#5EAAFF"/>
<path d="M21.1709 92.0276C21.1495 91.9597 21.1384 91.889 21.1377 91.8178C21.123 91.6817 21.1065 91.483 21.0917 91.2382C21.0452 90.598 21.0848 89.9544 21.2095 89.3246C21.3403 88.6883 21.6403 88.099 22.078 87.619C22.2135 87.4785 22.3655 87.3549 22.5306 87.251C22.5865 87.2095 22.6486 87.1772 22.7146 87.1553C22.5058 87.3121 22.3107 87.4863 22.1313 87.676C21.7222 88.1573 21.4407 88.7337 21.3125 89.3522C21.1916 89.9732 21.1422 90.606 21.1653 91.2382C21.183 91.501 21.1849 91.7646 21.1709 92.0276Z" fill="#263238"/>
<path d="M18.7881 83.5986C18.8407 83.7037 18.8838 83.8134 18.9169 83.9262C18.9923 84.1396 19.1009 84.4487 19.2242 84.8333C19.4744 85.6024 19.8038 86.6733 20.1442 87.8601C20.4846 89.0469 20.7569 90.1325 20.9427 90.92C21.0366 91.3138 21.1083 91.6321 21.1562 91.8547C21.1858 91.9682 21.2061 92.0839 21.2169 92.2006C21.173 92.092 21.1379 91.98 21.112 91.8658C21.0494 91.6266 20.9648 91.3138 20.8654 90.9458C20.6575 90.1638 20.3686 89.0837 20.0356 87.8969C19.7026 86.7101 19.3842 85.6374 19.1524 84.8627L18.8801 83.9427C18.8399 83.8308 18.8091 83.7157 18.7881 83.5986Z" fill="#263238"/>
<path d="M20.0687 89.8083C19.814 89.2428 19.428 88.7461 18.9429 88.3595C18.4578 87.9729 17.8874 87.7076 17.2793 87.5856C16.9701 87.5267 16.5893 87.5341 16.4163 87.7991C16.2433 88.064 16.3924 88.4173 16.5782 88.6712C16.9747 89.1978 17.5186 89.595 18.1409 89.8125C18.7632 90.03 19.436 90.058 20.0742 89.893" fill="#5EAAFF"/>
<path d="M17.616 88.4763C17.6841 88.4711 17.7526 88.478 17.8184 88.4965C17.8979 88.5075 17.9766 88.5241 18.0539 88.5462C18.157 88.5701 18.2584 88.6009 18.3575 88.6382C18.6198 88.7283 18.872 88.8455 19.11 88.9878C19.6967 89.3358 20.1933 89.8166 20.56 90.3917C20.7063 90.6245 20.8295 90.871 20.928 91.1277C20.9669 91.2265 21.0007 91.3272 21.0292 91.4295C21.0539 91.5059 21.073 91.584 21.0862 91.6632C21.1054 91.7289 21.1147 91.7971 21.1138 91.8656C21.0917 91.8656 21.0365 91.5841 20.8525 91.159C20.7451 90.9107 20.6158 90.6724 20.4661 90.4469C20.2798 90.173 20.0672 89.9179 19.8313 89.6852C19.5913 89.457 19.3294 89.253 19.0493 89.0761C18.8198 88.9309 18.5771 88.8076 18.3244 88.7081C17.903 88.5444 17.616 88.4965 17.616 88.4763Z" fill="#263238"/>
<path d="M70.7552 21.5594C70.7552 21.6146 71.1545 21.6588 71.6458 21.6588C72.137 21.6588 72.5363 21.6146 72.5363 21.5594C72.5363 21.5042 72.1389 21.4619 71.6458 21.4619C71.1526 21.4619 70.7552 21.5061 70.7552 21.5594Z" fill="#5EAAFF"/>
<path d="M69.8094 19.1362C69.7542 19.1362 69.7101 19.541 69.7101 20.0397C69.7101 20.5383 69.7542 20.9449 69.8094 20.9449C69.8646 20.9449 69.907 20.5401 69.907 20.0397C69.907 19.5392 69.872 19.1362 69.8094 19.1362Z" fill="#5EAAFF"/>
<path d="M68.8011 21.5022C68.8011 21.447 68.4019 21.4028 67.9106 21.4028C67.4193 21.4028 67.02 21.447 67.02 21.5022C67.02 21.5574 67.4175 21.5997 67.9106 21.5997C68.4037 21.5997 68.8011 21.5556 68.8011 21.5022Z" fill="#5EAAFF"/>
<path d="M69.7469 23.9254C69.8021 23.9254 69.8462 23.5206 69.8462 23.022C69.8462 22.5233 69.8021 22.1167 69.7469 22.1167C69.6917 22.1167 69.6494 22.5215 69.6494 23.022C69.6494 23.5225 69.688 23.9254 69.7469 23.9254Z" fill="#5EAAFF"/>
<path d="M68.308 22.8859C68.3485 22.9209 68.5251 22.7792 68.6999 22.5695C68.8747 22.3597 68.9833 22.1628 68.9409 22.1279C68.8986 22.0929 68.7238 22.2346 68.549 22.4425C68.3742 22.6504 68.2657 22.851 68.308 22.8859Z" fill="#5EAAFF"/>
<path d="M68.4 20.1371C68.3614 20.1758 68.4773 20.3561 68.6594 20.5383C68.8416 20.7204 69.0182 20.84 69.0569 20.8014C69.0955 20.7627 68.9796 20.5824 68.7993 20.4003C68.619 20.2181 68.4294 20.0985 68.4 20.1371Z" fill="#5EAAFF"/>
<path d="M70.4332 20.8379C70.4682 20.8784 70.6356 20.7956 70.8012 20.6539C70.9668 20.5122 71.0864 20.3595 71.0515 20.319C71.0165 20.2785 70.8491 20.3595 70.6835 20.503C70.5179 20.6465 70.3983 20.7956 70.4332 20.8379Z" fill="#5EAAFF"/>
<path d="M70.5124 22.0487C70.4737 22.0855 70.5731 22.2622 70.7387 22.4425C70.9043 22.6228 71.0699 22.7406 71.1067 22.7038C71.1435 22.667 71.046 22.4903 70.8804 22.31C70.7148 22.1297 70.5528 22.0119 70.5124 22.0487Z" fill="#5EAAFF"/>
<path d="M26.7222 42.8095C26.8846 42.8653 27.0574 42.8848 27.2282 42.8665C27.399 42.8848 27.5717 42.8653 27.7342 42.8095C27.5714 42.7549 27.3988 42.7361 27.2282 42.7543C27.0575 42.7361 26.8849 42.7549 26.7222 42.8095Z" fill="#5EAAFF"/>
<path d="M26.1849 41.4331C26.1113 41.7714 26.1113 42.1215 26.1849 42.4598C26.261 42.1218 26.261 41.7711 26.1849 41.4331Z" fill="#5EAAFF"/>
<path d="M25.6126 42.7763C25.4499 42.7217 25.2773 42.7029 25.1066 42.7211C24.936 42.7029 24.7634 42.7217 24.6006 42.7763C24.7631 42.8321 24.9358 42.8516 25.1066 42.8333C25.2775 42.8516 25.4502 42.8321 25.6126 42.7763Z" fill="#5EAAFF"/>
<path d="M26.1499 44.1527C26.226 43.8147 26.226 43.464 26.1499 43.126C26.0763 43.4643 26.0763 43.8144 26.1499 44.1527Z" fill="#5EAAFF"/>
<path d="M25.333 43.5603C25.3569 43.5805 25.4562 43.4996 25.5556 43.3763C25.655 43.253 25.7157 43.1444 25.6918 43.1242C25.6678 43.104 25.5685 43.1849 25.4691 43.3082C25.3698 43.4315 25.309 43.5437 25.333 43.5603Z" fill="#5EAAFF"/>
<path d="M25.379 42.0018C25.3587 42.0239 25.4231 42.1251 25.5262 42.23C25.6292 42.3348 25.7304 42.4011 25.7525 42.379C25.7746 42.3569 25.7102 42.2557 25.6071 42.1508C25.5041 42.046 25.401 41.9797 25.379 42.0018Z" fill="#5EAAFF"/>
<path d="M26.54 42.399C26.5584 42.4229 26.6541 42.3769 26.7534 42.2941C26.8528 42.2113 26.9153 42.1267 26.8951 42.1101C26.8749 42.0935 26.7792 42.134 26.6817 42.215C26.5841 42.2959 26.5197 42.3751 26.54 42.399Z" fill="#5EAAFF"/>
<path d="M26.5842 43.0876C26.5621 43.1078 26.6191 43.209 26.713 43.312C26.8068 43.4151 26.8969 43.4813 26.9245 43.4592C26.9521 43.4372 26.8896 43.3378 26.7958 43.2366C26.7019 43.1354 26.6081 43.0673 26.5842 43.0876Z" fill="#5EAAFF"/>
<path d="M71.6733 53.7172C72.0067 53.7908 72.352 53.7908 72.6853 53.7172C72.3523 53.6411 72.0064 53.6411 71.6733 53.7172Z" fill="#5EAAFF"/>
<path d="M71.1361 52.3408C71.0625 52.6791 71.0625 53.0293 71.1361 53.3675C71.2121 53.0295 71.2121 52.6788 71.1361 52.3408Z" fill="#5EAAFF"/>
<path d="M70.5639 53.6801C70.2308 53.604 69.8849 53.604 69.5519 53.6801C69.8852 53.7537 70.2306 53.7537 70.5639 53.6801Z" fill="#5EAAFF"/>
<path d="M71.1011 55.0604C71.1772 54.7224 71.1772 54.3717 71.1011 54.0337C71.0275 54.372 71.0275 54.7221 71.1011 55.0604Z" fill="#5EAAFF"/>
<path d="M70.2841 54.4696C70.3081 54.4898 70.4074 54.4088 70.5068 54.2856C70.6061 54.1623 70.6669 54.0556 70.6429 54.0353C70.619 54.0151 70.5197 54.096 70.4203 54.2193C70.3209 54.3426 70.2602 54.4493 70.2841 54.4696Z" fill="#5EAAFF"/>
<path d="M70.332 52.9094C70.31 52.9315 70.3744 53.0327 70.4774 53.1376C70.5804 53.2425 70.6835 53.3069 70.7037 53.2866C70.7239 53.2664 70.6614 53.1615 70.5584 53.0585C70.4553 52.9554 70.3523 52.8874 70.332 52.9094Z" fill="#5EAAFF"/>
<path d="M71.4912 53.3121C71.5096 53.336 71.6053 53.2881 71.7047 53.2072C71.804 53.1262 71.8666 53.0397 71.8463 53.0232C71.8261 53.0066 71.7304 53.0471 71.6329 53.1281C71.5354 53.209 71.471 53.2826 71.4912 53.3121Z" fill="#5EAAFF"/>
<path d="M71.528 53.995C71.5059 54.0152 71.563 54.1146 71.6568 54.2176C71.7506 54.3207 71.8408 54.3869 71.8684 54.3667C71.896 54.3464 71.8334 54.2452 71.7396 54.1422C71.6458 54.0391 71.5593 53.9729 71.528 53.995Z" fill="#5EAAFF"/>
<path d="M34.4612 82.2095C34.7939 82.2831 35.1386 82.2831 35.4713 82.2095C35.1386 82.1359 34.7939 82.1359 34.4612 82.2095Z" fill="#5EAAFF"/>
<path d="M33.9239 80.833C33.8479 81.171 33.8479 81.5217 33.9239 81.8597C33.9975 81.5214 33.9975 81.1713 33.9239 80.833Z" fill="#5EAAFF"/>
<path d="M33.3517 82.1763C33.0183 82.1027 32.673 82.1027 32.3397 82.1763C32.6727 82.2524 33.0186 82.2524 33.3517 82.1763Z" fill="#5EAAFF"/>
<path d="M33.8889 83.5526C33.9626 83.2143 33.9626 82.8642 33.8889 82.5259C33.8129 82.8639 33.8129 83.2146 33.8889 83.5526Z" fill="#5EAAFF"/>
<path d="M33.072 82.9621C33.0959 82.9824 33.1953 82.9014 33.2946 82.7781C33.394 82.6549 33.4565 82.5463 33.4326 82.526C33.4087 82.5058 33.3093 82.5868 33.21 82.71C33.1106 82.8333 33.0462 82.9364 33.072 82.9621Z" fill="#5EAAFF"/>
<path d="M33.118 81.4017C33.0959 81.4238 33.1622 81.525 33.2652 81.6299C33.3683 81.7347 33.4695 81.801 33.4915 81.7789C33.5136 81.7568 33.4474 81.6556 33.3443 81.5507C33.2413 81.4459 33.1401 81.3796 33.118 81.4017Z" fill="#5EAAFF"/>
<path d="M34.2772 81.7989C34.2975 81.8228 34.3932 81.7768 34.4907 81.694C34.5882 81.6112 34.6526 81.5266 34.6324 81.51C34.6121 81.4934 34.5183 81.5339 34.4189 81.6149C34.3196 81.6958 34.257 81.775 34.2772 81.7989Z" fill="#5EAAFF"/>
<path d="M34.3232 82.4875C34.2993 82.5077 34.3582 82.6089 34.4502 82.7119C34.5422 82.815 34.6342 82.8794 34.6618 82.8591C34.6894 82.8389 34.6268 82.7377 34.533 82.6365C34.4391 82.5353 34.3453 82.4672 34.3232 82.4875Z" fill="#5EAAFF"/>
<path d="M33.7252 35.3521L33.6663 35.4919C33.6161 35.6122 33.5426 35.7214 33.4501 35.8133C33.3576 35.9052 33.2479 35.9779 33.1272 36.0273L32.9745 36.0881L33.1198 36.1469C33.2446 36.1965 33.3579 36.2711 33.4528 36.366C33.5477 36.4609 33.6222 36.5742 33.6718 36.6989L33.7142 36.8001L33.7749 36.6732C33.8867 36.4408 34.0847 36.2613 34.3269 36.1727L34.4575 36.1249L34.2864 36.0402C34.0692 35.9353 33.8978 35.7547 33.8043 35.5324L33.7252 35.3521Z" fill="#5EAAFF"/>
<path d="M27.2337 32.9175L27.2043 32.9874C27.1795 33.0477 27.143 33.1025 27.0968 33.1486C27.0507 33.1947 26.9959 33.2312 26.9356 33.256L26.8583 33.2855L26.9319 33.3149C26.9933 33.3401 27.0491 33.3773 27.0958 33.4244C27.1426 33.4715 27.1795 33.5275 27.2043 33.5891L27.2245 33.6388L27.2558 33.5762C27.3114 33.4598 27.4105 33.3699 27.5318 33.326L27.598 33.302L27.5115 33.2597C27.4031 33.207 27.3175 33.1168 27.2705 33.0058L27.2337 32.9175Z" fill="#5EAAFF"/>
<path d="M77.5761 22.9209L77.5467 22.9908C77.5215 23.051 77.4846 23.1055 77.4382 23.1513C77.3917 23.1971 77.3367 23.2332 77.2762 23.2576L77.2007 23.2889L77.2725 23.3183C77.334 23.343 77.3898 23.3798 77.4366 23.4266C77.4834 23.4734 77.5202 23.5292 77.5448 23.5907L77.5669 23.6422L77.5963 23.5778C77.6526 23.4618 77.7515 23.3722 77.8723 23.3275L77.9386 23.3036L77.8521 23.2631C77.7436 23.2097 77.658 23.1189 77.6111 23.0074L77.5761 22.9209Z" fill="#5EAAFF"/>
<path d="M74.8069 60.3813L74.7793 60.4513C74.7279 60.5724 74.6306 60.6683 74.5088 60.7181L74.4333 60.7493L74.5051 60.7788C74.5666 60.8034 74.6224 60.8402 74.6692 60.887C74.716 60.9338 74.7528 60.9897 74.7774 61.0511L74.7977 61.1026L74.8289 61.0382C74.8845 60.9218 74.9837 60.8319 75.1049 60.788L75.1712 60.7641L75.0847 60.7217C74.9756 60.67 74.8897 60.5795 74.8437 60.4678L74.8069 60.3813Z" fill="#5EAAFF"/>
<path d="M36.016 76.7905L35.9865 76.8604C35.9614 76.9208 35.9245 76.9756 35.8781 77.0217C35.8317 77.0678 35.7766 77.1043 35.7161 77.1291L35.6406 77.1604L35.7124 77.1898C35.774 77.2141 35.83 77.2509 35.8768 77.2977C35.9236 77.3446 35.9604 77.4005 35.9847 77.4621L36.0049 77.5136L36.0362 77.4492C36.0918 77.3328 36.1909 77.2429 36.3122 77.199L36.3785 77.1751L36.292 77.1328C36.1832 77.0806 36.0974 76.9902 36.0509 76.8788L36.016 76.7905Z" fill="#5EAAFF"/>
<path d="M65.1689 15.6621L65.1395 15.732C65.1148 15.7925 65.0781 15.8473 65.0317 15.8932C64.9852 15.9391 64.9298 15.975 64.869 15.9988L64.7936 16.0301L64.8672 16.0595C64.9281 16.0841 64.9835 16.1205 65.0302 16.1666C65.077 16.2127 65.1141 16.2676 65.1395 16.3282L65.1597 16.3779L65.191 16.3153C65.2458 16.199 65.3444 16.1091 65.4652 16.0651L65.5314 16.0393L65.4449 15.9988C65.3365 15.9459 65.2514 15.8548 65.2057 15.7431L65.1689 15.6621Z" fill="#5EAAFF"/>
<path d="M69.5647 64.6191L69.5059 64.759C69.4556 64.8793 69.3821 64.9885 69.2896 65.0804C69.1971 65.1723 69.0874 65.245 68.9667 65.2944L68.814 65.3551L68.9594 65.414C69.0841 65.4636 69.1974 65.5382 69.2923 65.6331C69.3872 65.728 69.4618 65.8413 69.5114 65.966L69.5537 66.0672L69.6144 65.9403C69.7257 65.7076 69.924 65.5278 70.1664 65.4398L70.2989 65.3919L70.1259 65.3073C69.9086 65.2017 69.7372 65.0205 69.6439 64.7976L69.5647 64.6191Z" fill="#5EAAFF"/>
</svg>
