<svg width="120" height="120" viewBox="0 0 120 120" fill="none" xmlns="http://www.w3.org/2000/svg">
<path d="M107.201 96.2174L107.183 96.2434L107.166 96.2698C106.921 96.6391 106.591 96.9439 106.203 97.1582C105.823 97.3684 105.399 97.4855 104.965 97.5H92H90.9558L90.2218 98.2428L81.8218 106.743L81.8146 106.75C81.5802 106.989 81.3 107.179 80.9908 107.308C80.6816 107.437 80.3496 107.502 80.0146 107.5L80.0073 107.5H80H79.4772C79.1418 107.425 78.8248 107.282 78.5463 107.079C78.2247 106.844 77.9637 106.536 77.7852 106.18C77.7852 106.18 77.7851 106.18 77.785 106.18L64.9463 80.5524C64.668 79.9622 64.6315 79.2863 64.8449 78.6691C65.0603 78.0465 65.5127 77.5341 66.1038 77.2432L66.1288 77.2309L66.1534 77.2181L89.9034 64.8681L89.9523 64.8427L90 64.8151C90.3801 64.5957 90.8112 64.4802 91.25 64.4802C91.6873 64.4802 92.117 64.5949 92.496 64.8128C92.938 65.0714 93.276 65.4761 93.4516 65.9573L93.5016 66.0943L93.5672 66.2246L107.408 93.7058C107.598 94.1029 107.679 94.5431 107.645 94.9821C107.61 95.426 107.456 95.8524 107.201 96.2174ZM12.8345 96.2698L12.8275 96.2593L12.8204 96.2488C12.5685 95.8766 12.4216 95.4432 12.3952 94.9944C12.3688 94.5457 12.4639 94.0981 12.6705 93.6988L12.6767 93.6867L12.6828 93.6746L26.5328 66.1746L26.5985 66.0443L26.6485 65.9073C26.8241 65.4261 27.1621 65.0214 27.6041 64.7628C27.9832 64.5449 28.4128 64.4302 28.85 64.4302C29.2889 64.4302 29.72 64.5457 30.1 64.7651L30.1441 64.7905L30.1891 64.8142L53.8391 77.2142L53.8675 77.229L53.8962 77.2432C54.4874 77.5341 54.9398 78.0465 55.1551 78.6691C55.3686 79.2863 55.332 79.9622 55.0537 80.5524L42.215 106.18C42.215 106.18 42.2149 106.18 42.2148 106.18C42.0363 106.536 41.7754 106.844 41.4537 107.079C41.1752 107.282 40.8582 107.425 40.5229 107.5H40H39.9927L39.9854 107.5C39.6505 107.502 39.3185 107.437 39.0093 107.308C38.7001 107.179 38.4199 106.989 38.1854 106.75L38.1782 106.743L29.7782 98.2428L29.0442 97.5H28H15.0352C14.6013 97.4855 14.1769 97.3684 13.7967 97.1582C13.4091 96.9439 13.079 96.6391 12.8345 96.2698Z" fill="#397CFE" stroke="#006CA8" stroke-width="5"/>
<path d="M96.1334 42.3304L96.1687 42.3866L96.2069 42.4408C97.7777 44.6681 98.7069 47.2828 98.8949 50C98.7069 52.7171 97.7777 55.3318 96.2069 57.5591L96.1687 57.6134L96.1334 57.6695C95.4727 58.7206 94.8943 59.8213 94.4036 60.9617L94.321 61.1537L94.2714 61.3567C93.9572 62.6431 93.7668 63.9567 93.7029 65.2793L93.7016 65.3065L93.7009 65.3337C93.6301 68.0015 92.8605 70.603 91.4704 72.8787C89.7289 74.9204 87.4722 76.4602 84.9338 77.337L84.9129 77.3442L84.8921 77.3518C83.6291 77.8132 82.4261 78.4246 81.3089 79.1727L81.2207 79.2318L81.1378 79.2982C80.108 80.1224 79.1724 81.0579 78.3482 82.0878L78.3247 82.1171L78.3021 82.1472C76.6674 84.3204 74.4765 86.0114 71.9613 87.0423C71.0462 87.318 70.0949 87.4555 69.1389 87.4502C67.4696 87.4088 65.8113 87.1689 64.1987 86.7356L64.1608 86.7254L64.1226 86.7164C61.4112 86.0785 58.5888 86.0785 55.8774 86.7164L55.7972 86.7353L55.7185 86.7594C53.2031 87.5291 50.5294 87.6165 47.9708 87.0143C45.4841 85.981 43.3179 84.3009 41.6979 82.1472L41.6634 82.1014L41.627 82.0572C40.8039 81.0615 39.8884 80.146 38.8927 79.323L38.7957 79.2428L38.6911 79.1727C37.5738 78.4245 36.3708 77.8132 35.1079 77.3518L35.0871 77.3442L35.0662 77.337C32.5277 76.4602 30.2711 74.9204 28.5295 72.8787C27.1394 70.6029 26.3699 68.0015 26.2991 65.3337L26.2984 65.3065L26.2971 65.2793C26.2332 63.9567 26.0428 62.6431 25.7286 61.3567L25.679 61.1537L25.5964 60.9617C25.1056 59.8213 24.5273 58.7206 23.8666 57.6695L23.8313 57.6134L23.793 57.5591C22.2222 55.3318 21.293 52.7171 21.1051 50C21.293 47.2828 22.2222 44.6681 23.793 42.4408L23.8313 42.3866L23.8666 42.3304C24.5273 41.2793 25.1056 40.1786 25.5964 39.0382L25.679 38.8462L25.7286 38.6432C26.0428 37.3568 26.2332 36.0433 26.2971 34.7206L26.2984 34.6934L26.2991 34.6663C26.3699 31.9985 27.1394 29.397 28.5295 27.1212C30.2711 25.0795 32.5277 23.5398 35.0662 22.663L35.0871 22.6558L35.1079 22.6482C36.3708 22.1868 37.5738 21.5754 38.6911 20.8272L38.7793 20.7681L38.8622 20.7018C39.892 19.8775 40.8275 18.942 41.6518 17.9122L41.6753 17.8828L41.6979 17.8528C43.3247 15.69 45.5023 14.0049 48.0021 12.9727C50.5523 12.2933 53.2383 12.3056 55.7835 13.0095L55.8302 13.0224L55.8774 13.0335C58.5888 13.6715 61.4112 13.6715 64.1226 13.0335L64.1697 13.0224L64.2164 13.0095C66.7616 12.3056 69.4477 12.2933 71.9978 12.9727C74.4977 14.0049 76.6753 15.69 78.3021 17.8528L78.3365 17.8985L78.373 17.9427C79.196 18.9384 80.1115 19.8539 81.1073 20.677L81.2043 20.7571L81.3089 20.8272C82.4261 21.5754 83.6291 22.1868 84.8921 22.6482L84.9129 22.6558L84.9338 22.663C87.4722 23.5398 89.7289 25.0795 91.4705 27.1212C92.8605 29.397 93.6301 31.9985 93.7009 34.6663L93.7016 34.6934L93.7029 34.7206C93.7668 36.0433 93.9572 37.3568 94.2714 38.6432L94.321 38.8462L94.4036 39.0382C94.8943 40.1786 95.4727 41.2793 96.1334 42.3304Z" fill="#397CFE" stroke="#006CA8" stroke-width="5"/>
<path d="M60 70C71.0457 70 80 61.0457 80 50C80 38.9543 71.0457 30 60 30C48.9543 30 40 38.9543 40 50C40 61.0457 48.9543 70 60 70Z" fill="#FFBA33"/>
</svg>
