<svg width="50" height="51" viewBox="0 0 50 51" fill="none" xmlns="http://www.w3.org/2000/svg">
<path d="M5 28C5 26.6193 6.11929 25.5 7.5 25.5H12.5C13.8807 25.5 15 26.6193 15 28V40.5C15 41.8807 13.8807 43 12.5 43H7.5C6.11929 43 5 41.8807 5 40.5V28Z" fill="#FFD55C"/>
<path d="M20 18C20 16.6193 21.1193 15.5 22.5 15.5H27.5C28.8807 15.5 30 16.6193 30 18V40.5C30 41.8807 28.8807 43 27.5 43H22.5C21.1193 43 20 41.8807 20 40.5V18Z" fill="#FFD55C"/>
<path d="M35 10.5C35 9.11929 36.1193 8 37.5 8H42.5C43.8807 8 45 9.11929 45 10.5V40.5C45 41.8807 43.8807 43 42.5 43H37.5C36.1193 43 35 41.8807 35 40.5V10.5Z" fill="#FFD55C"/>
</svg>
